# Alias OBJ Model File
# Exported from SketchUp, (c) 2000-2012 Trimble Navigation Limited
# File units = meters

mtllib plafond appart.mtl

g Mesh1 Group1 Model

usemtl FrontColor
v 11.5331 0.22 -9.10001
vt 407.145 281.982
vn 2.00712e-015 1 1.73645e-013
v 11.5331 0.22 -16.234
vt 407.145 562.848
v 1.19166 0.22 -16.234
vt 3.93174e-015 562.848
v 1.19166 0.22 -2.08767
vt 3.94589e-014 5.90551
v 9.7346 0.22 -2.08767
vt 336.336 5.90551
v 9.7346 0.22 -9.10001
vt 336.336 281.982
f 1/1/1 2/2/1 3/3/1 4/4/1 5/5/1 6/6/1 

vt 562.848 8.66142
vn 1 -2.00712e-015 -4.65488e-015
vt 281.982 8.66142
v 11.5331 1.23591e-012 -9.10001
vt 281.982 4.94752e-011
v 11.5331 2.41967e-012 -16.234
vt 562.848 9.60797e-011
f 2/7/2 1/8/2 7/9/2 8/10/2 

vt 407.145 8.66142
vn 0 -1.73645e-013 1
vt 336.336 8.66142
v 9.7346 1.23591e-012 -9.10001
vt 336.336 -3.06895e-013
vt 407.145 -3.06895e-013
f 1/11/3 6/12/3 9/13/3 7/14/3 

vn 1 -2.00712e-015 -3.53737e-028
vt 5.90551 8.66142
v 9.7346 0 -2.08767
vt 5.90551 6.75069e-013
vt 281.982 4.9333e-011
f 6/8/4 5/15/4 10/16/4 9/17/4 

vt 5.68434e-014 8.66142
v 1.19166 0 -2.08767
vt 3.55271e-014 -1.02547e-012
vt 336.336 -1.02547e-012
f 5/12/3 4/18/3 11/19/3 10/20/3 

vt -5.90551 8.66142
vn -1 2.00712e-015 6.37896e-017
vt -562.848 8.66142
v 1.19166 2.48996e-012 -16.234
vt -562.848 9.803e-011
vt -5.90551 7.20635e-029
f 4/21/5 3/22/5 12/23/5 11/24/5 

vt -4.10758e-012 8.66142
vn -7.25997e-015 1.73645e-013 -1
vt -407.145 8.66142
vt -407.145 -2.47358e-012
vt -4.08626e-012 2.93985e-013
f 3/25/6 2/26/6 8/27/6 12/28/6 

vt -407.145 562.848
vn -2.00712e-015 -1 -1.73645e-013
vt -407.145 281.982
vt -336.336 281.982
vt -336.336 5.90551
vt -3.55271e-014 5.90551
vt 1.96758e-025 562.848
f 8/29/7 7/30/7 9/31/7 10/32/7 11/33/7 12/34/7 

